<svg xmlns="http://www.w3.org/2000/svg" viewBox="0 0 600 71.33"><defs><style>.cls-1{fill:#005098;}.cls-2{fill:#97cc04;}.cls-3{fill:#999;}</style></defs><g id="レイヤー_2" data-name="レイヤー 2"><g id="レイヤー_1-2" data-name="レイヤー 1"><path class="cls-1" d="M33.42,19.87h35.2a.55.55,0,0,0,.55-.54V9.53A.55.55,0,0,0,68.62,9H38.29l.57-1.47c.68-1.79,1.26-3.47,1.78-5L41,1.45,30.33,0a.54.54,0,0,0-.58.38,64,64,0,0,1-3.27,8l-.31.6H2.47a.55.55,0,0,0-.54.55v9.8a.54.54,0,0,0,.54.54H20.26L19,21.59A64.58,64.58,0,0,1,.26,39.34.53.53,0,0,0,0,40L4.1,51.09a.55.55,0,0,0,.81.27c1.42-.94,2.73-1.86,3.79-2.62l1.72-1.23V70.78a.55.55,0,0,0,.54.55h9.8a.55.55,0,0,0,.55-.55V37.37l.28-.31A83.37,83.37,0,0,0,33.12,20.45Z"/><path class="cls-1" d="M69.11,58.56h-43a.54.54,0,0,0-.54.54V69a.54.54,0,0,0,.54.55h43a.55.55,0,0,0,.55-.55V59.1A.55.55,0,0,0,69.11,58.56Z"/><path class="cls-2" d="M41.73,58.56a.55.55,0,0,0,.54-.55V46.88a.54.54,0,0,0-.54-.54H28.52a.55.55,0,0,1-.54-.55V35.91a.55.55,0,0,1,.54-.55H41.73a.54.54,0,0,0,.54-.54V25.21a.55.55,0,0,1,.55-.55h9.8a.55.55,0,0,1,.54.55v9.61a.54.54,0,0,0,.55.54H66.66a.55.55,0,0,1,.55.55v9.88a.55.55,0,0,1-.55.55H53.71a.54.54,0,0,0-.55.54V58a.55.55,0,0,0,.55.55"/><path class="cls-1" d="M139.9,50.65a.56.56,0,0,0-.74.51c-.18,6.29-1.28,7.64-5.14,7.64H120.14c-2.68,0-3.3-.6-3.3-3.21v-5.8a.54.54,0,0,1,.49-.54l30.43-3.15a.55.55,0,0,0,.49-.59l-.73-9.16a.55.55,0,0,0-.6-.5l-29.48,3a.55.55,0,0,1-.6-.54V31.53l1-.13a167.47,167.47,0,0,0,18.77-3.51.54.54,0,0,0,.34-.79l-4.52-8.24a.53.53,0,0,0-.61-.26c-4,1-17.13,3.95-39.38,4.43l-1.11,0v-7a.54.54,0,0,1,.54-.54h44.54a.55.55,0,0,1,.55.54v7.83l10.34,0a.55.55,0,0,0,.55-.55V6a.55.55,0,0,0-.55-.55H120.9a.54.54,0,0,1-.54-.54V.54a.55.55,0,0,0-.55-.54H108.38a.55.55,0,0,0-.55.54V4.93a.54.54,0,0,1-.54.54H80.93a.55.55,0,0,0-.54.55V23.41a.55.55,0,0,0,.54.55h6.65a.53.53,0,0,1,.53.42L90,33.16a.57.57,0,0,0,.55.43c5.1,0,9.86-.28,14.16-.72l1.2-.13V39.5a.55.55,0,0,1-.49.55L80.39,42.62a.55.55,0,0,0-.49.6l1,9.32a.55.55,0,0,0,.6.49l23.88-2.51a.55.55,0,0,1,.6.55V62c0,6.13.35,7.73,8.63,7.73h20.09c10.54,0,13.8-.66,14.62-15.08a.57.57,0,0,0-.36-.55Z"/><path class="cls-1" d="M170.62,60.23a.54.54,0,0,1,.48-.54c21.83-2.76,32.77-14,34.39-35.3l.09-1.17H179.45l-.31.53A48.7,48.7,0,0,1,159,42.3a.56.56,0,0,1-.8-.5V30.6a.55.55,0,0,1,.21-.43c8.31-6.28,13.48-15.2,16.16-27.94a.55.55,0,0,1,.53-.43h11.12a.54.54,0,0,1,.54.63,58.8,58.8,0,0,1-1.94,8.31l-.46,1.43h44.87a.54.54,0,0,1,.54.54v10a.54.54,0,0,1-.54.54H218.35l-.08,1c-2.26,28.42-18.52,44.36-47.06,46.2a.56.56,0,0,1-.59-.55Z"/><path class="cls-1" d="M242.64,59.08a.54.54,0,0,1,.34-.5c13.45-5.26,20-13.84,20-30.52V26.58a.54.54,0,0,1,.54-.54h10.54a.55.55,0,0,1,.55.55V28a46.32,46.32,0,0,1-.41,6L274,35.75l1.6-.52c8.69-2.85,14.1-9.06,16.08-18.45l.27-1.32H240.81a.54.54,0,0,1-.54-.54V4.71a.54.54,0,0,1,.54-.54h65V5.93c-.38,32.6-24.4,40.27-34.71,42.05l-.57.1-.24.53c-6.12,13.52-17.67,19-27,21.25a.55.55,0,0,1-.66-.54Z"/><path class="cls-3" d="M324.37,69V16.14a.43.43,0,0,1,.43-.43h9a.42.42,0,0,1,.42.43V32.93l.7.13c9.87,1.74,23.65,4.32,34.07,6.81a.41.41,0,0,1,.32.41v8.6a.41.41,0,0,1-.5.41c-9.56-2.16-23.09-4.92-33.59-6.84l-1-.18V69a.42.42,0,0,1-.42.42h-9A.42.42,0,0,1,324.37,69Z"/><circle class="cls-2" cx="348.74" cy="22.31" r="5.3"/><circle class="cls-2" cx="362.34" cy="22.31" r="5.3"/><path class="cls-3" d="M436.72,69V16.14a.43.43,0,0,1,.43-.43h9a.42.42,0,0,1,.42.43V32.93l.7.13c9.87,1.74,23.65,4.32,34.07,6.81a.41.41,0,0,1,.32.41v8.6a.41.41,0,0,1-.5.41c-9.57-2.16-23.09-4.92-33.59-6.84l-1-.18V69a.42.42,0,0,1-.42.42h-9A.42.42,0,0,1,436.72,69Z"/><path class="cls-3" d="M489.13,66.17V58.23a.42.42,0,0,1,.42-.43h36a.42.42,0,0,0,.42-.42V28.43a.42.42,0,0,0-.42-.42h-36a.42.42,0,0,1-.42-.43V19.7a.42.42,0,0,1,.42-.43h46.28a.43.43,0,0,1,.43.43V66.23a.43.43,0,0,1-.43.43l-46.28-.06A.42.42,0,0,1,489.13,66.17Z"/><path class="cls-3" d="M545.91,67.57V60.43a4.24,4.24,0,0,1,.4-1.82c4.23-8.91,11.34-29.13,14.52-41.32a.42.42,0,0,1,.41-.3h9.43a.43.43,0,0,1,.41.54,311.76,311.76,0,0,1-14.4,40.55l-.51,1.18h31l-.37-1.11c-2.38-7.09-6.22-15.22-9.6-22.39l-.71-1.51a.43.43,0,0,1,.38-.61h9.59a.43.43,0,0,1,.39.24A240.1,240.1,0,0,1,600,66.67a1.07,1.07,0,0,1-1,1.39L546.33,68A.42.42,0,0,1,545.91,67.57Z"/><path class="cls-3" d="M397.81,41.63h8.12a.42.42,0,0,0,.41-.52c-1.27-5.58-2.87-11.72-4.34-16a.42.42,0,0,0-.4-.29h-7.77a.42.42,0,0,0-.41.53c1.29,4.54,2.84,10.69,4,16A.42.42,0,0,0,397.81,41.63Z"/><path class="cls-3" d="M414,25.31v.31c-.13,21.9-6.62,30.89-25.61,35.12a.44.44,0,0,0-.33.41V68.7a.43.43,0,0,0,.5.42c24.11-3.77,35-17.21,35.12-43.38v-.43Z"/><path class="cls-3" d="M382.21,41.63h8.06a.43.43,0,0,0,.42-.52c-1.27-5.38-2.88-11.34-4.33-15.58a.42.42,0,0,0-.4-.28h-7.75a.42.42,0,0,0-.41.54c1.34,4.55,2.86,10.46,4,15.51A.43.43,0,0,0,382.21,41.63Z"/></g></g></svg>